:SAMPLES-PER-SECOND 30
:FULLY-SPECIFIED
:DEGREES
777
root  18.4977 39.8265 18.5385 2.60013 -42.8509 -2.55096
RightUpLeg  -11.4598 -19.1406 -7.69375
RightLeg  16.4603 3.94298 1.07198
RightFoot  -3.43602 -0.605836 8.40838
RightToes  -2.21189e-009 0 -3.6325e-017
Spine  9.12911 -1.99107 -3.97458
Spine1  4.3702 -2.42404 0.0700246
HEad  -14.6922 -4.1172 1.70564
LeftShoulder1  0.0337116 3.40376 -27.502
LeftArm  -12.6494 11.8854 -33.5431
LeftForeArm  11.012 -17.7643 -3.81146
LeftHand  -0.0778766 3.65547 4.079
RightShoulder  -0.456654 -4.9145 25.485
RightArm  7.64919 -7.29178 45.3017
RightForeArm  3.63725 8.92968 5.11353
RightHand  -0.385659 3.38779 -5.3405
LeftUpLeg  -5.99254 9.4233 4.05078
LeftLeg  8.55758 8.63268 -1.01999
LeftFoot  -3.26653 -0.0859203 1.49872
LeftToes  -4.03379e-008 1.61488e-010 -5.81581e-011
778
root  18.8702 39.8214 18.4845 2.47693 -46.4075 -2.65112
RightUpLeg  -10.3852 -17.9736 -8.78217
RightLeg  19.4615 0.966776 0.166659
RightFoot  -3.73584 -0.502485 7.17118
RightToes  -2.21189e-009 0 -3.6325e-017
Spine  8.74657 -1.95971 -4.51717
Spine1  4.37381 -2.54307 0.416989
HEad  -14.7096 -5.17181 2.28802
LeftShoulder1  0.0146614 3.45982 -27.3983
LeftArm  -12.162 11.9628 -33.6197
LeftForeArm  11.304 -17.4542 -3.86788
LeftHand  -0.0571663 4.09267 3.44768
RightShoulder  -0.517749 -5.08872 25.866
RightArm  7.03117 -9.05763 44.6885
RightForeArm  2.00643 9.86383 4.84557
RightHand  -0.485351 3.47031 -6.58573
LeftUpLeg  -5.58855 9.49372 3.81848
LeftLeg  8.30587 12.0727 -0.637882
LeftFoot  -3.09574 -0.0911399 1.52574
LeftToes  -4.03379e-008 1.61488e-010 -5.81581e-011
779
root  19.2525 39.8364 18.4547 2.0766 -49.8872 -2.38873
RightUpLeg  -9.13547 -18.3492 -10.2887
RightLeg  21.8317 -0.936067 -0.620265
RightFoot  -3.69796 -0.393603 5.51464
RightToes  -2.21189e-009 0 -3.6325e-017
Spine  8.31833 -2.19979 -4.7432
Spine1  4.44418 -2.87569 0.592974
HEad  -15.1256 -6.32561 2.69148
LeftShoulder1  -0.0780133 3.73301 -27.8494
LeftArm  -11.8547 11.7337 -33.5665
LeftForeArm  11.2422 -17.053 -3.92327
LeftHand  -0.0436898 4.68274 3.48455
RightShoulder  -0.486621 -5.00446 25.5965
RightArm  6.00927 -10.8177 44.8424
RightForeArm  2.41697 10.9132 4.38903
RightHand  -0.356046 2.70957 -5.33484
LeftUpLeg  -4.92853 9.16181 3.20432
LeftLeg  7.46477 15.7713 -0.212593
LeftFoot  -2.66208 -0.0868615 1.35434
LeftToes  -4.03379e-008 1.61488e-010 -5.81581e-011
780
root  19.5792 39.8467 18.3647 1.65678 -53.1694 -2.25275
RightUpLeg  -7.3431 -19.2095 -11.5451
RightLeg  22.8384 -1.74504 -1.01714
RightFoot  -3.76198 -0.26533 3.61504
RightToes  -2.21189e-009 0 -3.6325e-017
Spine  8.44478 -2.43533 -4.57916
Spine1  4.0151 -3.12818 0.521359
HEad  -15.2841 -7.23154 2.90193
LeftShoulder1  -0.144091 3.92619 -27.9174
LeftArm  -12.0392 11.7935 -34.2619
LeftForeArm  12.27 -16.9584 -3.8722
LeftHand  -0.0400839 4.7069 2.93805
RightShoulder  -0.516917 -5.09421 25.6562
RightArm  5.91243 -11.5367 44.939
RightForeArm  1.76639 10.513 4.39795
RightHand  -0.393328 3.49869 -5.37547
LeftUpLeg  -4.30415 9.22723 3.02192
LeftLeg  6.84266 18.9706 -0.165083
LeftFoot  -2.16879 -0.115382 1.60194
LeftToes  -4.03379e-008 1.61488e-010 -5.81581e-011
781
root  19.8888 39.8492 18.2659 0.88382 -56.2287 -1.92169
RightUpLeg  -4.8948 -20.7151 -12.969
RightLeg  22.3802 -0.921394 -0.631356
RightFoot  -4.31849 -0.232065 3.29974
RightToes  -2.21189e-009 0 -3.6325e-017
Spine  8.56154 -2.73782 -3.94031
Spine1  3.8608 -3.26905 -0.250773
HEad  -15.2206 -7.94824 3.15451
LeftShoulder1  -0.110482 3.83227 -27.4396
LeftArm  -11.4849 11.6394 -35.3227
LeftForeArm  12.1348 -16.782 -3.99892
LeftHand  -0.0453162 4.60793 3.49883
RightShoulder  -0.609471 -5.3332 26.5975
RightArm  6.3482 -11.6541 44.4785
RightForeArm  1.59129 10.1833 4.53536
RightHand  -0.458995 3.97038 -5.95793
LeftUpLeg  -3.5995 9.2823 2.83707
LeftLeg  6.3885 21.9086 -0.172241
LeftFoot  -1.74702 -0.143958 1.841
LeftToes  -4.03379e-008 1.61488e-010 -5.81581e-011
782
root  20.1624 39.8301 18.1055 0.404358 -59.756 -1.40295
RightUpLeg  -3.0515 -22.1072 -14.04
RightLeg  21.0775 0.262298 -0.103405
RightFoot  -4.87848 -0.198638 2.93018
RightToes  -2.21189e-009 0 -3.6325e-017
Spine  7.96079 -2.58927 -4.34354
Spine1  4.31683 -3.30753 0.558732
HEad  -16.0779 -8.35504 3.02991
LeftShoulder1  -0.137515 3.90818 -27.8676
LeftArm  -11.0755 11.0482 -36.4455
LeftForeArm  12.1045 -17.0235 -4.08265
LeftHand  -0.0476266 4.58385 3.80027
RightShoulder  -0.561246 -5.21383 26.0594
RightArm  6.05132 -12.1154 45.0885
RightForeArm  1.9531 10.4889 4.44378
RightHand  -0.448852 4.25248 -5.67637
LeftUpLeg  -3.61704 9.55089 2.75171
LeftLeg  6.48386 25.2638 -0.166246
LeftFoot  -1.35112 -0.176576 2.1138
LeftToes  -4.03379e-008 1.61488e-010 -5.81581e-011
783
root  20.3795 39.8316 17.9106 -0.23584 -63.0346 -0.994385
RightUpLeg  -0.452311 -24.7564 -15.0862
RightLeg  18.6521 0.699908 0.0312486
RightFoot  -5.07926 -0.1759 2.58523
RightToes  -2.21189e-009 0 -3.6325e-017
Spine  7.33197 -2.47024 -4.47761
Spine1  5.01118 -3.34966 1.34997
HEad  -16.5643 -8.54848 2.50433
LeftShoulder1  -0.067603 3.70156 -27.967
LeftArm  -10.8161 10.5255 -37.8397
LeftForeArm  12.7835 -17.4112 -4.09908
LeftHand  -0.0442035 4.7304 3.97806
RightShoulder  -0.565932 -5.229 26.0451
RightArm  6.1568 -12.1955 45.1791
RightForeArm  2.77764 11.0158 4.40759
RightHand  -0.435689 4.27909 -5.52379
LeftUpLeg  -3.24211 9.95433 2.97846
LeftLeg  6.36413 28.1202 -0.301763
LeftFoot  -0.90168 -0.202453 2.27678
LeftToes  -4.03379e-008 1.61488e-010 -5.81581e-011
784
root  20.6058 39.84 17.6837 -1.25752 -66.3698 -0.0864868
RightUpLeg  1.88361 -27.4363 -16.1924
RightLeg  16.1115 -1.00381 -0.275957
RightFoot  -4.79519 -0.148569 2.02598
RightToes  -2.21189e-009 0 -3.6325e-017
Spine  7.1098 -2.51518 -3.94771
Spine1  5.14553 -3.29575 1.20932
HEad  -17.09 -8.79783 2.64579
LeftShoulder1  -0.0528605 3.6585 -27.7696
LeftArm  -10.1444 10.1579 -39.0941
LeftForeArm  12.9563 -18.0113 -4.15192
LeftHand  -0.080778 3.25043 3.47285
RightShoulder  -0.548821 -5.17741 26.0056
RightArm  6.56146 -12.1279 45.6455
RightForeArm  1.91393 11.5056 4.55
RightHand  -0.491497 3.41381 -6.71194
LeftUpLeg  -2.89099 10.1026 3.01389
LeftLeg  6.02002 31.1541 -0.411322
LeftFoot  -0.282006 -0.226416 2.35435
LeftToes  -4.03379e-008 1.61488e-010 -5.81581e-011
785
root  20.7961 39.853 17.401 -2.44489 -70.2413 1.06268
RightUpLeg  3.91366 -26.7505 -16.7125
RightLeg  13.2822 -6.81226 -0.260548
RightFoot  -4.23304 -0.127402 1.59285
RightToes  -2.21189e-009 0 -3.6325e-017
Spine  6.78937 -2.37931 -3.64751
Spine1  5.23996 -3.1671 1.58923
HEad  -17.7072 -8.11826 1.78467
LeftShoulder1  -0.151923 3.94148 -28.6043
LeftArm  -9.68885 9.59388 -39.5108
LeftForeArm  13.5848 -18.4284 -4.14143
LeftHand  -0.159943 1.04604 4.34327
RightShoulder  -0.483055 -4.98977 25.6673
RightArm  6.97313 -11.8233 46.2796
RightForeArm  1.9308 12.1425 4.63538
RightHand  -0.501841 3.69184 -6.66637
LeftUpLeg  -2.44016 10.511 3.33633
LeftLeg  5.49076 34.5052 -0.783143
LeftFoot  0.410214 -0.260188 2.50625
LeftToes  -4.03379e-008 1.61488e-010 -5.81581e-011
786
root  20.9585 39.8506 17.0218 -4.42873 -74.1104 3.16919
RightUpLeg  5.24142 -22.3487 -16.1511
RightLeg  10.3472 -15.7126 0.242135
RightFoot  -3.29981 -0.0864036 0.891822
RightToes  -2.21189e-009 0 -3.6325e-017
Spine  6.38924 -2.20272 -3.35828
Spine1  5.21965 -2.88841 1.47095
HEad  -18.2634 -7.57087 1.43447
LeftShoulder1  -0.143084 3.91511 -28.5531
LeftArm  -8.04184 9.46971 -40.3419
LeftForeArm  12.5606 -20.1846 -4.22174
LeftHand  -0.0758749 3.956 4.61531
RightShoulder  -0.523476 -5.10744 25.8436
RightArm  7.85966 -11.135 46.7382
RightForeArm  2.48477 12.6753 4.80646
RightHand  -0.478387 4.01802 -6.16888
LeftUpLeg  -2.14858 10.6996 3.54992
LeftLeg  5.01795 38.0976 -0.906589
LeftFoot  1.255 -0.259692 2.28415
LeftToes  -4.03379e-008 1.61488e-010 -5.81581e-011
